<svg xmlns="http://www.w3.org/2000/svg" viewBox="0 0 533.3 533.3" style="enable-background:new 0 0 533.3 533.3" xml:space="preserve"><linearGradient id="a" gradientUnits="userSpaceOnUse" x1="16" y1="266" x2="516" y2="266"><stop offset=".226" style="stop-color:#281214"/><stop offset="1" style="stop-color:#e9213b"/></linearGradient><path d="M503.5 253.5h-65.6c-6.3-85.3-74.1-153.1-159.4-159.4V28.5c0-6.9-5.6-12.5-12.5-12.5s-12.5 5.6-12.5 12.5v65.6c-85.3 6.3-153.1 74.1-159.4 159.4H28.5c-6.9 0-12.5 5.6-12.5 12.5s5.6 12.5 12.5 12.5h65.6c6.3 85.3 74.1 153.1 159.4 159.4v65.6c0 6.9 5.6 12.5 12.5 12.5s12.5-5.6 12.5-12.5v-65.6c85.3-6.3 153.1-74.1 159.4-159.4h65.6c6.9 0 12.5-5.6 12.5-12.5s-5.6-12.5-12.5-12.5zm-225 159.3v-39.9c0-6.9-5.6-12.5-12.5-12.5s-12.5 5.6-12.5 12.5v39.9C182 406.6 125.4 350 119.2 278.5h39.9c6.9 0 12.5-5.6 12.5-12.5s-5.6-12.5-12.5-12.5h-39.9c6.2-71.5 62.9-128.1 134.3-134.3v39.9c0 6.9 5.6 12.5 12.5 12.5s12.5-5.6 12.5-12.5v-39.9c71.5 6.2 128.1 62.9 134.3 134.3h-39.9c-6.9 0-12.5 5.6-12.5 12.5s5.6 12.5 12.5 12.5h39.9C406.6 350 350 406.6 278.5 412.8zM266 207.6c-32.3 0-58.4 26.2-58.4 58.4s26.2 58.4 58.4 58.4 58.4-26.2 58.4-58.4-26.2-58.4-58.4-58.4zm0 91.8c-18.5 0-33.4-15-33.4-33.4s15-33.4 33.4-33.4 33.4 15 33.4 33.4-15 33.4-33.4 33.4z" style="fill:url(#a)"/></svg>